<?xml version="1.0" encoding="UTF-8" standalone="no"?>
<!-- Created with Inkscape (http://www.inkscape.org/) -->

<svg
   version="1.1"
   id="svg2"
   width="666.66669"
   height="666.66669"
   viewBox="0 0 666.66669 666.66669"
   xmlns="http://www.w3.org/2000/svg"
   xmlns:svg="http://www.w3.org/2000/svg">
  <defs
     id="defs6">
    <clipPath
       clipPathUnits="userSpaceOnUse"
       id="clipPath18">
      <path
         d="M 0,500 H 500 V 0 H 0 Z"
         id="path16" />
    </clipPath>
  </defs>
  <g
     id="g8"
     transform="matrix(1.3333333,0,0,-1.3333333,0,666.66667)">
    <path
       d="M 0,0 H 500 V 500 H 0 Z"
       style="fill:#ffffff;fill-opacity:1;fill-rule:nonzero;stroke:none"
       id="path10" />
    <g
       id="g12">
      <g
         id="g14"
         clip-path="url(#clipPath18)">
        <g
           id="g20"
           transform="translate(398.6554,61.4505)">
          <path
             d="m 0,0 c 0,-6.627 -67.709,-12 -151.232,-12 -83.523,0 -151.232,5.373 -151.232,12 0,6.627 67.709,12 151.232,12 C -67.709,12 0,6.627 0,0"
             style="fill:#fceaea;fill-opacity:1;fill-rule:nonzero;stroke:none"
             id="path22" />
        </g>
        <g
           id="g24"
           transform="translate(291.3947,98.0887)">
          <path
             d="m 0,0 c -21.05,-0.728 -46.634,-2.603 -72.644,-2.23 -42.144,0.575 -85.395,7.014 -112.224,33.612 -13.954,13.842 -20.105,33.674 -23.495,53.03 -10.846,61.96 3.35,127.474 36.886,180.554 9.269,14.685 20.02,28.422 32.131,40.862 4.846,4.977 9.901,9.751 15.175,14.295 4.495,3.869 9.187,7.599 14.069,11.097 7.894,5.67 16.256,10.757 24.959,14.918 17.983,8.616 37.408,13.309 57.127,11.141 40.513,-4.459 68.659,-34.471 89.98,-67.544 6.673,-10.352 12.681,-21.003 18.185,-31.266 4.16,-7.755 8.066,-15.647 11.713,-23.662 7.937,-17.405 14.662,-35.358 20.154,-53.687 7.924,-26.419 13.291,-53.611 16.078,-81.042 1.48,-14.531 1.845,-30.728 -1.776,-45.297 C 122.885,40.93 115.838,28.553 102.711,20.485 72.433,1.877 34.414,1.199 0,0"
             style="fill:#fbdcde;fill-opacity:1;fill-rule:nonzero;stroke:none"
             id="path26" />
        </g>
        <g
           id="g28"
           transform="translate(378.2296,267.6905)">
          <path
             d="m 0,0 c -55.605,-17.657 -121.654,6.371 -152.916,55.622 -17.044,26.851 -23.91,58.712 -35.798,88.211 -2.412,5.985 -5.143,11.968 -8.223,17.785 7.895,5.67 16.256,10.757 24.959,14.918 8.505,-12.764 15.948,-26.296 25.014,-38.689 22.53,-30.792 55.222,-54.022 91.711,-65.155 19.464,-5.943 39.949,-8.433 60.281,-7.487 C 12.964,47.8 19.689,29.847 25.181,11.518 17.389,6.583 8.803,2.791 0,0"
             style="fill:#fefafa;fill-opacity:1;fill-rule:nonzero;stroke:none"
             id="path30" />
        </g>
        <g
           id="g32"
           transform="translate(291.3947,98.0887)">
          <path
             d="m 0,0 c -21.05,-0.728 -46.634,-2.603 -72.644,-2.23 -31.307,24.349 -55.419,57.896 -68.358,95.402 -14.83,42.998 -14.994,89.458 -22.12,134.377 -1.985,12.472 -4.683,25.119 -8.355,37.417 9.269,14.685 20.02,28.422 32.131,40.862 7.676,-15.143 13.15,-31.788 17.165,-48.146 9.288,-37.828 13.5,-77.717 32.189,-111.897 16.347,-29.909 43.524,-53.74 75.308,-66.036 30.71,-11.883 64.316,-13.012 97.032,-16.784 14.715,-1.695 29.675,-4.1 43.97,-8.184 C 122.885,40.93 115.838,28.553 102.711,20.485 72.433,1.877 34.414,1.199 0,0"
             style="fill:#fefafa;fill-opacity:1;fill-rule:nonzero;stroke:none"
             id="path34" />
        </g>
        <g
           id="g36"
           transform="translate(383.8819,197.3864)">
          <path
             d="m 0,0 c -10.226,-3.122 -21.046,2.637 -24.168,12.863 -3.121,10.226 2.638,21.046 12.863,24.168 C -1.079,40.152 9.741,34.393 12.863,24.168 15.985,13.942 10.226,3.122 0,0"
             style="fill:#fefafa;fill-opacity:1;fill-rule:nonzero;stroke:none"
             id="path38" />
        </g>
        <g
           id="g40"
           transform="translate(305.6388,193.7413)">
          <path
             d="m 0,0 c -6.546,-1.998 -13.474,1.688 -15.472,8.235 -1.999,6.546 1.688,13.473 8.235,15.472 C -0.691,25.705 6.236,22.018 8.235,15.472 10.233,8.926 6.546,1.998 0,0"
             style="fill:#fefafa;fill-opacity:1;fill-rule:nonzero;stroke:none"
             id="path42" />
        </g>
        <g
           id="g44"
           transform="translate(321.1469,84.1821)">
          <path
             d="M 0,0 C 0.052,-0.323 -0.408,-0.445 -0.514,-0.125 -0.607,0.156 -0.7,0.438 -0.781,0.721 -0.797,0.735 -0.812,0.75 -0.828,0.763 c -0.263,0.216 -0.259,0.491 -0.128,0.71 -0.013,0.077 -0.03,0.153 -0.041,0.231 -0.075,0.565 -0.1,1.128 -0.112,1.698 -0.025,1.173 0.149,2.345 0.408,3.489 0.544,2.403 1.48,4.713 2.282,7.038 2.897,8.399 3.353,17.416 2.513,26.206 -0.881,9.223 -3.168,18.236 -5.43,27.196 -0.055,0.216 -0.002,0.395 0.102,0.532 -1.001,3.824 -1.013,7.947 -0.812,11.833 0.246,4.749 0.843,9.48 0.892,14.24 0.024,2.284 -0.072,4.581 -0.427,6.839 -0.389,2.474 -1.154,4.831 -1.956,7.196 -0.844,2.487 -1.521,4.964 -1.878,7.571 -0.353,2.578 -0.538,5.177 -0.994,7.741 -0.437,2.451 -1.059,4.868 -1.859,7.225 -0.48,1.412 -1.042,2.783 -1.646,4.138 -0.079,0.12 -0.157,0.24 -0.225,0.371 -0.156,0.302 -0.317,0.6 -0.484,0.895 -1.39,2.443 -2.845,4.863 -4.486,7.148 -1.562,2.173 -3.296,4.21 -5.147,6.141 -3.446,3.595 -7.23,6.842 -10.783,10.327 -3.507,3.441 -6.832,7.17 -9.161,11.527 -2.532,4.74 -3.56,10.04 -5.354,15.063 -0.899,2.517 -2.033,4.957 -3.625,7.116 -1.556,2.11 -3.527,3.913 -5.742,5.31 -0.104,0.066 -0.171,0.149 -0.22,0.237 -0.091,-0.046 -0.18,-0.096 -0.271,-0.141 -1.544,-0.762 -3.156,-1.396 -4.808,-1.879 -0.81,-0.236 -1.631,-0.436 -2.458,-0.599 -0.425,-0.083 -0.852,-0.157 -1.28,-0.22 -0.474,-0.07 -0.867,-0.065 -1.34,0.004 -0.558,0.081 -0.411,0.831 0,0.988 0.882,0.339 1.856,0.393 2.781,0.593 0.888,0.191 1.766,0.426 2.632,0.703 1.762,0.563 3.462,1.302 5.078,2.201 2.887,1.606 5.481,3.708 7.628,6.219 1.15,1.344 2.196,2.823 2.887,4.459 0.629,1.488 0.917,3.088 0.958,4.696 1.637,-0.566 3.203,-1.292 4.801,-1.956 0.268,-0.112 0.431,0.317 0.193,0.458 -1.525,0.907 -3.222,1.526 -4.907,2.065 -0.031,0.01 -0.058,0.009 -0.085,0.009 0,0.04 10e-4,0.079 0,0.119 -0.014,0.847 -0.097,1.684 -0.218,2.515 1.267,0.115 2.538,0.188 3.809,0.21 1.081,0.018 2.162,-0.005 3.242,-0.055 1.091,-0.052 2.253,-0.236 3.336,-0.042 0.317,0.056 0.401,0.588 0.094,0.721 -1.027,0.442 -2.248,0.469 -3.351,0.516 -1.133,0.049 -2.267,0.043 -3.4,-0.005 -1.304,-0.055 -2.602,-0.185 -3.894,-0.37 -0.157,0.845 -0.352,1.683 -0.578,2.515 0.306,0.114 0.61,0.232 0.918,0.342 1.278,0.458 2.564,0.898 3.86,1.304 2.594,0.812 5.227,1.492 7.885,2.061 0.727,0.156 1.456,0.299 2.186,0.441 0.376,0.073 0.751,0.155 1.126,0.238 0.384,0.085 0.796,0.136 1.132,0.354 0.314,0.203 0.277,0.711 -0.107,0.814 -0.622,0.168 -1.4,-0.037 -2.026,-0.131 -0.685,-0.102 -1.365,-0.238 -2.043,-0.376 -1.358,-0.276 -2.707,-0.587 -4.046,-0.937 -2.653,-0.692 -5.283,-1.502 -7.848,-2.472 -0.452,-0.171 -0.9,-0.353 -1.349,-0.532 -0.396,1.323 -0.84,2.633 -1.272,3.936 -0.615,1.853 -1.216,3.717 -1.632,5.627 -0.209,0.956 -0.368,1.94 -0.434,2.917 -0.022,0.321 -0.033,0.645 -0.036,0.969 -0.381,0.006 -0.745,0.297 -0.587,0.766 0.226,0.672 0.463,1.34 0.702,2.008 1.895,5.293 3.79,10.586 5.685,15.879 0.948,2.646 1.895,5.293 2.842,7.939 0.932,2.603 1.938,5.193 2.713,7.847 0.725,2.483 1.252,5.156 0.84,7.745 -0.133,0.84 -0.421,1.805 -1.093,2.376 -0.903,0.767 -2.033,0.05 -2.901,-0.412 -4.844,-2.58 -9.644,-5.242 -14.397,-7.985 -2.366,-1.365 -4.717,-2.754 -7.062,-4.154 -1.161,-0.693 -2.319,-1.39 -3.475,-2.092 -1.121,-0.682 -2.222,-1.402 -3.395,-1.99 -0.018,-0.039 -0.032,-0.08 -0.057,-0.113 -0.197,-0.255 -0.493,-0.272 -0.77,-0.153 -0.666,0.283 -1.277,0.697 -1.91,1.049 -0.614,0.341 -1.235,0.671 -1.862,0.988 -1.245,0.629 -2.514,1.212 -3.805,1.739 -4.605,1.879 -9.476,3.142 -14.417,3.709 -2.489,0.286 -4.998,0.402 -7.503,0.346 -2.287,-0.051 -4.546,-0.333 -6.821,-0.503 -0.164,-0.397 -0.767,-0.568 -1.088,-0.1 -1.486,2.171 -2.84,4.426 -4.363,6.575 -2.673,3.77 -5.591,7.363 -8.726,10.758 -1.554,1.681 -3.16,3.315 -4.817,4.894 -1.355,1.292 -2.955,2.741 -4.91,2.804 -1.18,-2.427 -1.501,-5.153 -1.641,-7.821 -0.145,-2.757 -0.217,-5.518 -0.373,-8.275 -0.162,-2.861 -0.365,-5.719 -0.611,-8.574 -0.242,-2.828 -0.536,-5.652 -0.869,-8.472 -0.168,-1.422 -0.371,-2.842 -0.573,-4.26 -0.201,-1.414 -0.566,-2.791 -0.802,-4.197 -0.025,-0.157 -0.148,-0.234 -0.283,-0.249 -1.434,-4.215 -2.866,-8.437 -4.129,-12.707 -0.547,-1.85 -1.058,-3.71 -1.542,-5.577 -0.914,0.43 -1.834,0.846 -2.77,1.226 -1.321,0.537 -2.68,1.016 -4.082,1.294 -0.694,0.137 -1.411,0.234 -2.119,0.236 -0.658,0.002 -1.478,-0.032 -2.063,-0.364 -0.268,-0.151 -0.202,-0.558 0.083,-0.641 0.643,-0.188 1.39,-0.142 2.055,-0.214 0.648,-0.071 1.287,-0.172 1.924,-0.308 1.349,-0.289 2.657,-0.748 3.933,-1.265 0.919,-0.372 1.825,-0.776 2.725,-1.193 -0.241,-0.958 -0.474,-1.917 -0.698,-2.879 -0.9,0.065 -1.807,0.058 -2.708,-0.031 -1.074,-0.105 -2.143,-0.31 -3.179,-0.614 -1.012,-0.296 -2.058,-0.682 -2.9,-1.334 -0.371,-0.287 0.036,-0.866 0.439,-0.753 0.962,0.268 1.879,0.699 2.837,0.989 0.961,0.291 1.946,0.495 2.943,0.612 0.775,0.091 1.556,0.115 2.337,0.104 -0.131,-0.58 -0.267,-1.159 -0.392,-1.741 -0.153,-0.712 -0.321,-1.435 -0.47,-2.162 -1.249,-0.272 -2.476,-0.641 -3.666,-1.11 -0.792,-0.312 -1.569,-0.662 -2.321,-1.06 -0.738,-0.391 -1.577,-0.832 -2.159,-1.438 -0.23,-0.24 -0.003,-0.734 0.349,-0.6 0.756,0.29 1.45,0.767 2.17,1.139 0.767,0.397 1.545,0.771 2.347,1.092 1.006,0.404 2.041,0.729 3.091,0.992 -0.186,-1.085 -0.295,-2.178 -0.213,-3.268 0.147,-1.958 1.128,-3.726 2.186,-5.335 1.596,-2.43 3.454,-4.687 5.515,-6.738 0.026,-0.052 0.045,-0.104 0.086,-0.155 2.69,-3.339 5.388,-6.885 6.774,-10.966 0.027,-0.641 0.022,-1.284 -0.027,-1.927 -0.962,-12.86 -12.074,-21.157 -18.375,-31.44 -7.614,-12.425 -5.472,-27.434 -2.174,-40.884 1.801,-7.342 4.17,-14.538 7.065,-21.52 2.693,-6.497 5.82,-12.963 6.965,-19.964 0.559,-3.418 0.58,-6.854 -0.005,-10.271 -0.6,-3.502 -1.755,-6.88 -3.008,-10.195 -2.544,-6.735 -5.658,-13.592 -5.489,-20.948 0.088,-3.827 1.297,-7.271 3.259,-10.528 1.971,-3.271 4.185,-6.409 6.295,-9.592 4.245,-6.406 8.491,-12.812 12.737,-19.218 0.813,-0.521 1.229,-1.587 1.173,-2.549 -0.086,-1.497 -1.186,-2.596 -2.429,-3.3 -1.356,-0.769 -2.863,-1.304 -4.288,-1.93 -1.58,-0.694 -3.154,-1.401 -4.718,-2.127 -2.942,-1.365 -5.921,-2.742 -8.717,-4.39 -1.162,-0.684 -2.279,-1.455 -3.209,-2.438 -0.964,-1.019 -1.591,-2.232 -1.877,-3.605 -0.321,-1.545 -0.336,-3.194 -0.27,-4.767 0.065,-1.56 0.308,-3.142 0.92,-4.588 0.038,-0.091 0.059,-0.185 0.067,-0.278 0.031,-0.027 0.062,-0.055 0.091,-0.08 0.003,-0.002 0,0 0.004,-0.003 0.016,-0.011 0.032,-0.023 0.048,-0.034 0.036,-0.024 0.074,-0.048 0.11,-0.072 0.038,-0.024 0.075,-0.048 0.113,-0.071 0.021,-0.012 0.079,-0.033 0.003,-0.009 -0.109,0.035 0.066,-0.028 0.054,-0.023 0.099,-0.042 0.198,-0.091 0.294,-0.14 0.036,-0.019 0.073,-0.036 0.11,-0.053 0.01,-0.004 0.019,-0.008 0.028,-0.011 0.01,-0.004 0.021,-0.005 0.031,-0.008 0.029,-0.005 0.058,-0.012 0.087,-0.017 0,0 0,0 0.001,0 0.027,-0.002 0.054,-0.005 0.082,-0.008 0.019,-0.001 0.039,-0.001 0.059,-0.003 0.091,0.097 0.231,0.15 0.357,0.133 0.085,-0.011 0.161,-0.047 0.222,-0.1 0.038,0.008 0.077,0.016 0.114,0.026 0.095,0.024 0.197,0.053 0.295,0.051 0.029,0 0.059,-0.009 0.089,-0.014 0.306,0.028 0.616,0.026 0.91,0.001 0.129,-0.012 0.257,-0.034 0.386,-0.049 -0.591,2.224 -0.316,4.675 0.665,6.737 0.589,1.239 1.406,2.343 2.236,3.429 0.417,0.545 0.832,1.092 1.264,1.626 0.227,0.282 0.448,0.568 0.659,0.862 0.183,0.256 0.339,0.524 0.589,0.721 0.139,0.11 0.413,0.06 0.393,-0.163 -0.056,-0.659 -0.521,-1.306 -0.846,-1.867 -0.344,-0.595 -0.743,-1.155 -1.138,-1.718 -1.47,-2.091 -2.858,-4.23 -2.887,-6.876 -0.012,-1.027 0.155,-2.101 0.518,-3.082 0.154,-0.119 0.227,-0.313 0.216,-0.511 0.034,-0.072 0.058,-0.151 0.094,-0.222 0.127,-0.248 0.305,-0.256 0.573,-0.299 0.364,-0.059 0.73,-0.11 1.095,-0.164 0.364,-0.055 0.729,-0.109 1.094,-0.164 0.196,-0.029 0.393,-0.051 0.583,-0.095 0.186,0.531 0.393,1.055 0.652,1.557 0.589,1.143 1.426,2.155 2.418,2.97 3.781,3.109 9.096,3.534 12.776,6.78 4.842,4.272 5.032,11.272 4.561,17.223 -0.54,6.816 -1.474,13.607 -2.703,20.331 -1.241,6.788 -2.844,13.496 -4.598,20.168 -0.057,0.216 0.259,0.298 0.331,0.091 0.276,-0.797 0.545,-1.596 0.808,-2.397 2.113,-6.443 3.694,-13.074 4.957,-19.733 0.633,-3.336 1.154,-6.694 1.602,-10.06 0.448,-3.362 0.833,-6.748 1.017,-10.135 0.321,-5.883 -0.494,-12.66 -5.354,-16.658 -1.908,-1.571 -4.202,-2.513 -6.471,-3.431 -2.136,-0.864 -4.398,-1.716 -6.17,-3.235 -0.958,-0.821 -1.709,-1.806 -2.238,-2.953 -0.315,-0.682 -0.54,-1.407 -0.73,-2.133 -0.192,-0.732 -0.431,-1.527 -0.457,-2.287 -0.026,-0.764 0.47,-1.216 1.022,-1.667 0.567,-0.463 1.174,-0.878 1.801,-1.254 1.255,-0.751 2.599,-1.313 4.008,-1.698 0.065,0.55 0.194,1.103 0.335,1.605 0.24,0.847 0.581,1.669 0.991,2.448 0.815,1.55 1.928,2.934 3.156,4.177 0.651,0.66 1.359,1.267 2.082,1.848 0.717,0.577 1.492,1.059 2.226,1.606 0.293,0.218 0.646,-0.261 0.385,-0.499 -0.679,-0.621 -1.315,-1.305 -1.986,-1.939 -0.638,-0.604 -1.264,-1.217 -1.875,-1.848 -2.052,-2.119 -3.88,-4.822 -4.067,-7.855 -0.017,-0.27 -0.056,-0.577 0.175,-0.762 0.196,-0.157 0.513,-0.196 0.751,-0.229 0.851,-0.118 1.719,-0.161 2.576,-0.209 0.849,-0.048 1.699,-0.079 2.549,-0.089 0.452,-0.005 0.904,-0.005 1.356,0.001 0.069,10e-4 0.153,-0.002 0.241,-0.004 0.167,0.027 0.334,0.057 0.503,0.074 0.029,0.013 0.062,0.021 0.086,0.04 0.273,0.216 0.593,0.18 0.798,0.01 1.012,0.021 2.039,-0.065 3.011,-0.101 2.869,-0.106 5.739,-0.176 8.609,-0.209 5.742,-0.067 11.484,0.012 17.221,0.236 11.48,0.447 23.017,1.355 34.375,3.125 5.381,0.838 10.74,1.985 15.87,3.843 4.301,1.558 8.418,3.617 12.268,6.087 7.786,4.995 14.377,11.689 19.468,19.4 0.298,0.451 1.007,0.047 0.73,-0.427 -1.102,-1.881 -2.297,-3.708 -3.624,-5.44 -5.423,-7.072 -12.345,-12.946 -20.199,-17.162 -4.156,-2.231 -8.556,-3.976 -13.099,-5.242 -5.164,-1.438 -10.467,-2.296 -15.776,-2.985 -11.154,-1.447 -22.389,-2.307 -33.63,-2.626 -5.615,-0.159 -11.233,-0.179 -16.849,-0.06 -2.7,0.057 -5.411,0.261 -8.111,0.254 -0.296,0 -0.634,-0.014 -0.984,-0.051 -0.178,-0.046 -0.37,-0.068 -0.565,-0.081 -1.324,-0.238 -2.602,-0.871 -2.273,-2.429 0.237,-1.12 1.116,-2.121 1.858,-2.952 0.742,-0.83 1.563,-1.59 2.443,-2.271 1.755,-1.359 3.731,-2.425 5.758,-3.317 4.218,-1.854 8.757,-3.089 13.234,-4.135 9.034,-2.11 18.334,-3.019 27.606,-2.784 9.28,0.236 18.523,1.62 27.465,4.115 8.97,2.503 17.623,6.119 25.669,10.813 3.994,2.331 7.951,4.871 11.466,7.89 3.566,3.063 6.632,6.745 8.122,11.265 0.816,2.474 1.25,5.074 1.535,7.659 0.226,2.044 0.321,4.11 0.189,6.164 C 3.634,-6.29 2.591,-2.615 0,0"
             style="fill:#000326;fill-opacity:1;fill-rule:nonzero;stroke:none"
             id="path46" />
        </g>
      </g>
    </g>
  </g>
</svg>
